<svg xmlns="http://www.w3.org/2000/svg" viewBox="0 0 324.31 334.58">
    <defs>
        <style>
            .cls-1{fill:#53b0e3;}.cls-2{fill:#fbca17;}.cls-3{fill:#f3725e;}.cls-4{fill:#fff;}.cls-5{fill:#f7aa1b;}.cls-6{fill:#f9cd16;}</style>
    </defs>
    <g id="Layer_2" data-name="Layer 2">
        <g id="Layer_2-2" data-name="Layer 2">
            <path class="cls-1"
                d="M84.49,334.58l239.82-74.34L244.66,9.8C235.41,14.06,16.34,106,16.34,106Z" />
        </g>
        <g id="Layer_4" data-name="Layer 4">
            <rect class="cls-2" y="40.17" width="251.77" height="251.77" />
            <rect class="cls-2" y="40.24" width="251.77" height="251.77" rx="15.67" />
            <path class="cls-3"
                d="M72.08,112.72A12.06,12.06,0,0,1,60,100.66V64.52a6,6,0,0,0-11.94,0v38.12a24,24,0,0,0,24,24h0a24,24,0,0,0,24-24V24a24,24,0,0,0-24-24h0a24,24,0,0,0-24,24V40.17H60V28.79a12.06,12.06,0,1,1,24.12,0v71.87A12.06,12.06,0,0,1,72.08,112.72Z" />
            <path class="cls-4" d="M209.8,88.29H119.59a6,6,0,1,0,0,11.91H209.8a6,6,0,1,0,0-11.91Z" />
            <path class="cls-4" d="M209.8,136.2H42a6,6,0,1,0,0,11.91H209.8a6,6,0,1,0,0-11.91Z" />
            <rect class="cls-4" x="36.01" y="178.24" width="131.57" height="11.91" rx="5.96" />
            <rect class="cls-4" x="179.63" y="178.24" width="36.13" height="11.91" rx="5.96" />
            <path class="cls-4" d="M126.06,220.29H42a6,6,0,1,0,0,11.91h84.09a6,6,0,0,0,0-11.91Z" />
        </g>
        <g id="Layer_5" data-name="Layer 5">
            <path class="cls-5"
                d="M295.56,262.79a1.77,1.77,0,0,1-1.37-1.47l-3.8-20.06-6.52,2.12a1.57,1.57,0,0,1-1.9-1.13,1.67,1.67,0,0,1-.1-.43l-2.82-22.44a1.51,1.51,0,0,1,.95-1.7l13.5-4.38a1.32,1.32,0,0,1,1.25.26,2,2,0,0,1,.72,1.29l1.77,13.4,6.41-2.08a1.44,1.44,0,0,1,1.52.51,2,2,0,0,1,.38,1.68L297,261.69a1.37,1.37,0,0,1-.84,1.06A1.21,1.21,0,0,1,295.56,262.79Z" />
            <path class="cls-6"
                d="M294.05,261.42a1.8,1.8,0,0,1-1.38-1.47l-3.8-20.06L282.35,242a1.57,1.57,0,0,1-1.9-1.13,2.23,2.23,0,0,1-.1-.43L277.54,218a1.5,1.5,0,0,1,.94-1.69L292,211.93a1.33,1.33,0,0,1,1.25.26,1.94,1.94,0,0,1,.71,1.29l1.78,13.4,6.41-2.08a1.42,1.42,0,0,1,1.51.51A2,2,0,0,1,304,227l-8.58,33.33a1.2,1.2,0,0,1-1.4,1.1Z" />
        </g>
    </g>
</svg>